{"title":"The.Wind.Rises.2013.DVDSCR.XviD.HORiZON-ArtSubs","uid":9871822,"size":2198468608,"categoryP":"video","categoryS":"movies","magnet":"?xt=urn:btih:bf5ec0c5c1b13e4eef4ba4353193346c60cb2116&amp;dn=The.Wind.Rises.2013.DVDSCR.XviD.HORiZON-ArtSubs&amp;tr=udp%3A%2F%2Ftracker.openbittorrent.com%3A80&amp;tr=udp%3A%2F%2Fopen.demonii.com%3A1337&amp;tr=udp%3A%2F%2Ftracker.coppersurfer.tk%3A6969&amp;tr=udp%3A%2F%2Fexodus.desync.com%3A6969","seeders":25,"leechers":2,"uploader":"lletaif","files":1,"time":1396419164,"description":"Title:\nThe Wind Rises Aka Kaze Tachinu\n\n\nCountry:\nJapan/2013\n\n\nLanguage:\nJapanese\n\n\nNo Subtitle\n\n\nIMDB: &lt;a href=&quot;\nhttp://www.imdb.com/title/tt2013293/?ref_=nm_flmg_dr_1&quot; rel=&quot;nofollow&quot; target=&quot;_NEW&quot;&gt;\nhttp://www.imdb.com/title/tt2013293/?ref_=nm_flmg_dr_1&lt;/a&gt;\n\n\nTrivia:\nOfficial Selection Venice Film Festival\n\n\nNominated - Oscar - Best Animated Feature Film of the Year\n\n\nNominated - Golden Globe - Best Foreign Language Film\n\n\nMedia Info:\n\nGeneral\nComplete name                            : The.Wind.Rises.2013.DVDSCR.XviD.HORiZON-ArtSubs.avi\nFormat                                   : AVI\nFormat/Info                              : Audio Video Interleave\nFormat profile                           : OpenDML\nFile size                                : 2.05 GiB\nDuration                                 : 2h 1mn\nOverall bit rate                         : 2 413 Kbps\nWriting application                      : FairUse Wizard - http://fairusewizard.com\nWriting library                          : The best and REALLY easy backup tool\n\nVideo\nID                                       : 0\nFormat                                   : MPEG-4 Visual\nFormat profile                           : Advanced Simple@L5\nFormat settings, BVOP                    : 1\nFormat settings, QPel                    : No\nFormat settings, GMC                     : No warppoints\nFormat settings, Matrix                  : Default (MPEG)\nMuxing mode                              : Packed bitstream\nCodec ID                                 : XVID\nCodec ID/Hint                            : XviD\nDuration                                 : 2h 1mn\nBit rate                                 : 2 208 Kbps\nWidth                                    : 704 pixels\nHeight                                   : 352 pixels\nDisplay aspect ratio                     : 2.000\nFrame rate                               : 23.976 fps\nColor space                              : YUV\nChroma subsampling                       : 4:2:0\nBit depth                                : 8 bits\nScan type                                : Progressive\nCompression mode                         : Lossy\nBits/(Pixel*Frame)                       : 0.372\nStream size                              : 1.87 GiB (92%)\nWriting library                          : XviD 1.2.0.dev47 (UTC 2006-11-01)\n\nAudio\nID                                       : 1\nFormat                                   : AC-3\nFormat/Info                              : Audio Coding 3\nMode extension                           : CM (complete main)\nFormat settings, Endianness              : Big\nCodec ID                                 : 2000\nDuration                                 : 2h 1mn\nBit rate mode                            : Constant\nBit rate                                 : 192 Kbps\nChannel count                            : 2 channels\nChannel positions                        : Front: L R\nSampling rate                            : 48.0 KHz\nBit depth                                : 16 bits\nCompression mode                         : Lossy\nStream size                              : 167 MiB (8%)\nAlignment                                : Split accross interleaves\nInterleave, duration                     : 42 ms (1.00 video frame)\nInterleave, preload duration             : 500 ms\n\n","torrent":{"xt":"urn:btih:bf5ec0c5c1b13e4eef4ba4353193346c60cb2116","amp;dn":"The.Wind.Rises.2013.DVDSCR.XviD.HORiZON-ArtSubs","amp;tr":["udp%3A%2F%2Ftracker.openbittorrent.com%3A80","udp%3A%2F%2Fopen.demonii.com%3A1337","udp%3A%2F%2Ftracker.coppersurfer.tk%3A6969","udp%3A%2F%2Fexodus.desync.com%3A6969"],"infoHash":"bf5ec0c5c1b13e4eef4ba4353193346c60cb2116","infoHashBuffer":{"type":"Buffer","data":[191,94,192,197,193,177,62,78,239,75,164,53,49,147,52,108,96,203,33,22]},"announce":[],"urlList":[]}}